<mxfile host="65bd71144e">
    <diagram id="cck4gnMlPpkk3IRFCRJW" name="RoadMap">
        <mxGraphModel dx="1242" dy="568" grid="1" gridSize="10" guides="1" tooltips="1" connect="1" arrows="1" fold="1" page="1" pageScale="1" pageWidth="850" pageHeight="1100" math="0" shadow="0">
            <root>
                <mxCell id="0"/>
                <mxCell id="1" parent="0"/>
                <mxCell id="3" value="&amp;nbsp;" style="endArrow=none;dashed=1;html=1;entryX=0.973;entryY=1;entryDx=0;entryDy=0;entryPerimeter=0;" parent="1" target="5" edge="1">
                    <mxGeometry width="50" height="50" relative="1" as="geometry">
                        <mxPoint x="10" y="130" as="sourcePoint"/>
                        <mxPoint x="1200" y="130" as="targetPoint"/>
                    </mxGeometry>
                </mxCell>
                <mxCell id="4" value="Abril/2023" style="text;html=1;strokeColor=none;fillColor=none;align=center;verticalAlign=middle;whiteSpace=wrap;rounded=0;" parent="1" vertex="1">
                    <mxGeometry x="225" y="100" width="60" height="30" as="geometry"/>
                </mxCell>
                <mxCell id="5" value="Dezembro /2023" style="text;html=1;strokeColor=none;fillColor=none;align=right;verticalAlign=middle;whiteSpace=wrap;rounded=0;" parent="1" vertex="1">
                    <mxGeometry x="1080" y="100" width="100" height="30" as="geometry"/>
                </mxCell>
                <mxCell id="6" value="Roadmap Team Biters Web" style="text;html=1;strokeColor=none;fillColor=none;align=left;verticalAlign=middle;whiteSpace=wrap;rounded=0;fontSize=26;fontStyle=1" parent="1" vertex="1">
                    <mxGeometry x="10" y="10" width="350" height="70" as="geometry"/>
                </mxCell>
                <mxCell id="8" value="&lt;b&gt;Dashboard&lt;/b&gt;&lt;br&gt;novo micros ervice - .net" style="rounded=0;whiteSpace=wrap;html=1;fontSize=16;fillColor=#0050ef;fontColor=#ffffff;strokeColor=#001DBC;" parent="1" vertex="1">
                    <mxGeometry x="10" y="280" width="410" height="60" as="geometry"/>
                </mxCell>
                <mxCell id="9" value="Março/2023" style="text;html=1;strokeColor=none;fillColor=none;align=center;verticalAlign=middle;whiteSpace=wrap;rounded=0;" parent="1" vertex="1">
                    <mxGeometry x="10" y="100" width="60" height="30" as="geometry"/>
                </mxCell>
                <mxCell id="10" value="&lt;b&gt;NFS-e&lt;/b&gt;&lt;br&gt;novo microservice - nodejs" style="rounded=0;whiteSpace=wrap;html=1;fontSize=16;fillColor=#0050ef;fontColor=#ffffff;strokeColor=#001DBC;" parent="1" vertex="1">
                    <mxGeometry x="10" y="350" width="410" height="60" as="geometry"/>
                </mxCell>
                <mxCell id="11" value="Educação&lt;br&gt;Andamento&lt;br&gt;Meu Reforço&lt;br&gt;&lt;font style=&quot;font-size: 13px;&quot;&gt;Ajustes para entrega em abril&lt;/font&gt;" style="rounded=0;whiteSpace=wrap;html=1;fontSize=16;fillColor=#0050ef;fontColor=#ffffff;strokeColor=#001DBC;" parent="1" vertex="1">
                    <mxGeometry x="10" y="420" width="410" height="110" as="geometry"/>
                </mxCell>
                <mxCell id="12" value="&lt;b style=&quot;font-size: 18px;&quot;&gt;SuperSagep UI&lt;/b&gt;&lt;br&gt;Trazer toda ui pra interface nova dos módulos de saúde, laboral/pecúlio, educação, andamento penal, educação, edi, sistema (usuário, roles e grupos de usuários), carceragem, sequências de ofícios." style="rounded=0;whiteSpace=wrap;html=1;fontSize=16;fillColor=#a20025;fontColor=#ffffff;strokeColor=#6F0000;" parent="1" vertex="1">
                    <mxGeometry x="430" y="140" width="750" height="300" as="geometry"/>
                </mxCell>
                <mxCell id="13" value="SuperSagep&lt;br&gt;Saúde - microservice&amp;nbsp;" style="rounded=0;whiteSpace=wrap;html=1;fontSize=16;fillColor=#e3c800;fontColor=#000000;strokeColor=#B09500;" parent="1" vertex="1">
                    <mxGeometry x="430" y="450" width="750" height="60" as="geometry"/>
                </mxCell>
                <mxCell id="14" value="SuperSagep&lt;br&gt;Educação/Andamento Penal/Meu Reforço" style="rounded=0;whiteSpace=wrap;html=1;fontSize=16;fillColor=#e3c800;fontColor=#000000;strokeColor=#B09500;" parent="1" vertex="1">
                    <mxGeometry x="430" y="590" width="750" height="90" as="geometry"/>
                </mxCell>
                <mxCell id="15" value="SuperSagep&lt;br&gt;Laboral/Pecúlio - microservice&amp;nbsp;" style="rounded=0;whiteSpace=wrap;html=1;fontSize=16;fillColor=#e3c800;fontColor=#000000;strokeColor=#B09500;" parent="1" vertex="1">
                    <mxGeometry x="430" y="520" width="750" height="60" as="geometry"/>
                </mxCell>
                <mxCell id="17" value="&lt;b&gt;Saúde&lt;/b&gt;&lt;br&gt;Pacote atual" style="rounded=0;whiteSpace=wrap;html=1;fontSize=16;fillColor=#e3c800;fontColor=#000000;strokeColor=#B09500;" parent="1" vertex="1">
                    <mxGeometry x="10" y="540" width="410" height="60" as="geometry"/>
                </mxCell>
                <mxCell id="18" value="&lt;b&gt;Siapa&lt;/b&gt;&lt;br&gt;Pacote atual" style="rounded=0;whiteSpace=wrap;html=1;fontSize=16;fillColor=#e3c800;fontColor=#000000;strokeColor=#B09500;" parent="1" vertex="1">
                    <mxGeometry x="10" y="610" width="410" height="60" as="geometry"/>
                </mxCell>
                <mxCell id="19" value="&lt;b&gt;Regime aberto&lt;/b&gt;&lt;br&gt;Pacote atual" style="rounded=0;whiteSpace=wrap;html=1;fontSize=16;fillColor=#e3c800;fontColor=#000000;strokeColor=#B09500;" parent="1" vertex="1">
                    <mxGeometry x="10" y="680" width="410" height="60" as="geometry"/>
                </mxCell>
                <mxCell id="20" value="&amp;nbsp;" style="rounded=0;whiteSpace=wrap;html=1;fontSize=16;fillColor=#e3c800;fontColor=#000000;strokeColor=#B09500;" parent="1" vertex="1">
                    <mxGeometry x="430" y="689" width="750" height="50" as="geometry"/>
                </mxCell>
                <mxCell id="21" value="Agosto/2023" style="text;html=1;strokeColor=none;fillColor=none;align=center;verticalAlign=middle;whiteSpace=wrap;rounded=0;" parent="1" vertex="1">
                    <mxGeometry x="780" y="100" width="60" height="30" as="geometry"/>
                </mxCell>
                <mxCell id="24" value="Maio/2023" style="text;html=1;strokeColor=none;fillColor=none;align=center;verticalAlign=middle;whiteSpace=wrap;rounded=0;" parent="1" vertex="1">
                    <mxGeometry x="425" y="100" width="60" height="30" as="geometry"/>
                </mxCell>
                <mxCell id="25" value="" style="endArrow=classic;html=1;fontSize=18;" parent="1" edge="1">
                    <mxGeometry width="50" height="50" relative="1" as="geometry">
                        <mxPoint x="10" y="90" as="sourcePoint"/>
                        <mxPoint x="1180" y="90" as="targetPoint"/>
                    </mxGeometry>
                </mxCell>
                <mxCell id="26" value="&lt;b&gt;Dashboard&lt;/b&gt;&lt;br&gt;ui nova" style="rounded=0;whiteSpace=wrap;html=1;fontSize=16;fillColor=#a20025;fontColor=#ffffff;strokeColor=#6F0000;" parent="1" vertex="1">
                    <mxGeometry x="10" y="140" width="410" height="60" as="geometry"/>
                </mxCell>
                <mxCell id="27" value="&lt;b&gt;NFS-e&lt;/b&gt;&lt;br&gt;ui nova" style="rounded=0;whiteSpace=wrap;html=1;fontSize=16;fillColor=#a20025;fontColor=#ffffff;strokeColor=#6F0000;" parent="1" vertex="1">
                    <mxGeometry x="10" y="210" width="410" height="60" as="geometry"/>
                </mxCell>
            </root>
        </mxGraphModel>
    </diagram>
    <diagram id="Pj2Eehi-QaPyoeGLlTJP" name="Reuniões">
        <mxGraphModel dx="1242" dy="568" grid="1" gridSize="10" guides="1" tooltips="1" connect="1" arrows="1" fold="1" page="1" pageScale="1" pageWidth="850" pageHeight="1100" math="0" shadow="0">
            <root>
                <mxCell id="0"/>
                <mxCell id="1" parent="0"/>
                <mxCell id="T3JksoG8ERSQEv-GhMPO-1" value="Sprints&lt;br&gt;7 a 15 dias" style="ellipse;whiteSpace=wrap;html=1;fontSize=26;fillColor=#0050ef;fontColor=#ffffff;strokeColor=#001DBC;" parent="1" vertex="1">
                    <mxGeometry x="340" y="252.5" width="210" height="140" as="geometry"/>
                </mxCell>
                <mxCell id="T3JksoG8ERSQEv-GhMPO-2" value="Dayli&lt;br&gt;15 minutos" style="rounded=0;whiteSpace=wrap;html=1;fontSize=26;fillColor=#0050ef;fontColor=#ffffff;strokeColor=#001DBC;" parent="1" vertex="1">
                    <mxGeometry x="90" y="80" width="210" height="110" as="geometry"/>
                </mxCell>
                <mxCell id="T3JksoG8ERSQEv-GhMPO-3" value="Reuniões semanais de um período&lt;br&gt;&lt;u&gt;Tecnologia e Inovação&lt;/u&gt;" style="rounded=0;whiteSpace=wrap;html=1;fontSize=26;fillColor=#a20025;fontColor=#ffffff;strokeColor=#6F0000;" parent="1" vertex="1">
                    <mxGeometry x="90" y="225" width="210" height="195" as="geometry"/>
                </mxCell>
                <mxCell id="T3JksoG8ERSQEv-GhMPO-5" value="Reuniões individuais mensalmente" style="rounded=0;whiteSpace=wrap;html=1;fontSize=26;fillColor=#1ba1e2;fontColor=#ffffff;strokeColor=#006EAF;" parent="1" vertex="1">
                    <mxGeometry x="90" y="450" width="210" height="110" as="geometry"/>
                </mxCell>
            </root>
        </mxGraphModel>
    </diagram>
    <diagram id="KQJGE7YYh9CiUa_SScbw" name="Arquitetura">
        <mxGraphModel dx="2070" dy="947" grid="1" gridSize="10" guides="1" tooltips="1" connect="1" arrows="1" fold="1" page="1" pageScale="1" pageWidth="850" pageHeight="1100" math="0" shadow="0">
            <root>
                <mxCell id="0"/>
                <mxCell id="1" parent="0"/>
                <mxCell id="GQ4f7FLdB0ceitJemdQN-23" style="edgeStyle=none;html=1;fontSize=30;" parent="1" source="GQ4f7FLdB0ceitJemdQN-1" target="GQ4f7FLdB0ceitJemdQN-15" edge="1">
                    <mxGeometry relative="1" as="geometry"/>
                </mxCell>
                <mxCell id="GQ4f7FLdB0ceitJemdQN-24" style="edgeStyle=none;html=1;fontSize=30;" parent="1" source="GQ4f7FLdB0ceitJemdQN-1" target="GQ4f7FLdB0ceitJemdQN-14" edge="1">
                    <mxGeometry relative="1" as="geometry"/>
                </mxCell>
                <mxCell id="GQ4f7FLdB0ceitJemdQN-25" style="edgeStyle=none;html=1;fontSize=30;" parent="1" source="GQ4f7FLdB0ceitJemdQN-1" target="GQ4f7FLdB0ceitJemdQN-11" edge="1">
                    <mxGeometry relative="1" as="geometry"/>
                </mxCell>
                <mxCell id="GQ4f7FLdB0ceitJemdQN-26" style="edgeStyle=none;html=1;fontSize=30;" parent="1" source="GQ4f7FLdB0ceitJemdQN-1" target="GQ4f7FLdB0ceitJemdQN-13" edge="1">
                    <mxGeometry relative="1" as="geometry"/>
                </mxCell>
                <mxCell id="GQ4f7FLdB0ceitJemdQN-51" style="edgeStyle=none;html=1;fontSize=20;" parent="1" source="GQ4f7FLdB0ceitJemdQN-1" target="GQ4f7FLdB0ceitJemdQN-50" edge="1">
                    <mxGeometry relative="1" as="geometry"/>
                </mxCell>
                <mxCell id="GQ4f7FLdB0ceitJemdQN-1" value="UI" style="ellipse;whiteSpace=wrap;html=1;fontSize=80;fillColor=#0050ef;fontColor=#ffffff;strokeColor=#001DBC;" parent="1" vertex="1">
                    <mxGeometry x="360" y="358.75" width="402.5" height="402.5" as="geometry"/>
                </mxCell>
                <mxCell id="GQ4f7FLdB0ceitJemdQN-6" style="edgeStyle=none;html=1;fontSize=26;" parent="1" source="GQ4f7FLdB0ceitJemdQN-2" target="GQ4f7FLdB0ceitJemdQN-1" edge="1">
                    <mxGeometry relative="1" as="geometry"/>
                </mxCell>
                <mxCell id="GQ4f7FLdB0ceitJemdQN-2" value="CLIENTE&amp;nbsp; 1" style="rounded=0;whiteSpace=wrap;html=1;fontSize=26;" parent="1" vertex="1">
                    <mxGeometry x="80" y="420" width="180" height="60" as="geometry"/>
                </mxCell>
                <mxCell id="GQ4f7FLdB0ceitJemdQN-7" style="edgeStyle=none;html=1;fontSize=26;" parent="1" source="GQ4f7FLdB0ceitJemdQN-4" target="GQ4f7FLdB0ceitJemdQN-1" edge="1">
                    <mxGeometry relative="1" as="geometry"/>
                </mxCell>
                <mxCell id="GQ4f7FLdB0ceitJemdQN-4" value="CLIENTE&amp;nbsp; 2" style="rounded=0;whiteSpace=wrap;html=1;fontSize=26;" parent="1" vertex="1">
                    <mxGeometry x="80" y="530" width="180" height="60" as="geometry"/>
                </mxCell>
                <mxCell id="GQ4f7FLdB0ceitJemdQN-8" style="edgeStyle=none;html=1;fontSize=26;" parent="1" source="GQ4f7FLdB0ceitJemdQN-5" target="GQ4f7FLdB0ceitJemdQN-1" edge="1">
                    <mxGeometry relative="1" as="geometry"/>
                </mxCell>
                <mxCell id="GQ4f7FLdB0ceitJemdQN-5" value="CLIENTE&amp;nbsp; 3" style="rounded=0;whiteSpace=wrap;html=1;fontSize=26;" parent="1" vertex="1">
                    <mxGeometry x="80" y="650" width="180" height="60" as="geometry"/>
                </mxCell>
                <mxCell id="XYAPubBJLH74dwEfytQ6-2" style="edgeStyle=none;html=1;fontSize=20;" parent="1" source="GQ4f7FLdB0ceitJemdQN-11" target="GQ4f7FLdB0ceitJemdQN-50" edge="1">
                    <mxGeometry relative="1" as="geometry"/>
                </mxCell>
                <mxCell id="GQ4f7FLdB0ceitJemdQN-11" value="SAÚDE&lt;br&gt;microservice&lt;br&gt;php/nodejs" style="ellipse;whiteSpace=wrap;html=1;aspect=fixed;fontSize=15;fillColor=#e3c800;fontColor=#000000;strokeColor=#B09500;" parent="1" vertex="1">
                    <mxGeometry x="770" y="100" width="160" height="160" as="geometry"/>
                </mxCell>
                <mxCell id="GQ4f7FLdB0ceitJemdQN-13" value="LABORAL/PECÚLIO&lt;br&gt;microservice&lt;br&gt;nodejs" style="ellipse;whiteSpace=wrap;html=1;aspect=fixed;fontSize=15;fillColor=#e3c800;fontColor=#000000;strokeColor=#B09500;" parent="1" vertex="1">
                    <mxGeometry x="930" y="250" width="160" height="160" as="geometry"/>
                </mxCell>
                <mxCell id="GQ4f7FLdB0ceitJemdQN-14" value="DASHBOARD&lt;br&gt;microservice&lt;br&gt;dotnet" style="ellipse;whiteSpace=wrap;html=1;aspect=fixed;fontSize=15;fillColor=#e3c800;fontColor=#000000;strokeColor=#B09500;" parent="1" vertex="1">
                    <mxGeometry x="950" y="730" width="160" height="160" as="geometry"/>
                </mxCell>
                <mxCell id="GQ4f7FLdB0ceitJemdQN-15" value="NFS-e&lt;br&gt;microservice&lt;br&gt;nodejs" style="ellipse;whiteSpace=wrap;html=1;aspect=fixed;fontSize=15;fillColor=#e3c800;fontColor=#000000;strokeColor=#B09500;" parent="1" vertex="1">
                    <mxGeometry x="770" y="840" width="160" height="160" as="geometry"/>
                </mxCell>
                <mxCell id="GQ4f7FLdB0ceitJemdQN-20" value="" style="endArrow=classic;startArrow=classic;html=1;fontSize=15;exitX=1;exitY=0.5;exitDx=0;exitDy=0;entryX=0;entryY=0.5;entryDx=0;entryDy=0;" parent="1" source="GQ4f7FLdB0ceitJemdQN-1" target="GQ4f7FLdB0ceitJemdQN-16" edge="1">
                    <mxGeometry width="50" height="50" relative="1" as="geometry">
                        <mxPoint x="670" y="430" as="sourcePoint"/>
                        <mxPoint x="720" y="380" as="targetPoint"/>
                    </mxGeometry>
                </mxCell>
                <mxCell id="GQ4f7FLdB0ceitJemdQN-21" value="Autenticação e Autorização" style="text;html=1;strokeColor=none;fillColor=none;align=center;verticalAlign=middle;whiteSpace=wrap;rounded=0;fontSize=15;" parent="1" vertex="1">
                    <mxGeometry x="780" y="530" width="220" height="30" as="geometry"/>
                </mxCell>
                <mxCell id="GQ4f7FLdB0ceitJemdQN-16" value="GATEWAY" style="ellipse;whiteSpace=wrap;html=1;aspect=fixed;fontSize=60;fillColor=#d80073;fontColor=#ffffff;strokeColor=#A50040;" parent="1" vertex="1">
                    <mxGeometry x="1020" y="392.5" width="335" height="335" as="geometry"/>
                </mxCell>
                <mxCell id="GQ4f7FLdB0ceitJemdQN-10" value="security logic" style="text;html=1;strokeColor=none;fillColor=none;align=center;verticalAlign=middle;whiteSpace=wrap;rounded=0;fontSize=30;rotation=0;movable=1;resizable=1;rotatable=1;deletable=1;editable=1;connectable=1;" parent="1" vertex="1">
                    <mxGeometry x="1077.578125" y="574" width="219.84375" height="62.8125" as="geometry"/>
                </mxCell>
                <mxCell id="GQ4f7FLdB0ceitJemdQN-22" value="JWT" style="text;html=1;strokeColor=none;fillColor=none;align=center;verticalAlign=middle;whiteSpace=wrap;rounded=0;fontSize=15;fontStyle=1" parent="1" vertex="1">
                    <mxGeometry x="770" y="560" width="220" height="30" as="geometry"/>
                </mxCell>
                <mxCell id="GQ4f7FLdB0ceitJemdQN-27" value="" style="endArrow=classic;startArrow=classic;html=1;fontSize=30;entryX=0;entryY=1;entryDx=0;entryDy=0;" parent="1" source="GQ4f7FLdB0ceitJemdQN-11" target="GQ4f7FLdB0ceitJemdQN-32" edge="1">
                    <mxGeometry width="50" height="50" relative="1" as="geometry">
                        <mxPoint x="990" y="230" as="sourcePoint"/>
                        <mxPoint x="1040" y="180" as="targetPoint"/>
                        <Array as="points">
                            <mxPoint x="980" y="170"/>
                        </Array>
                    </mxGeometry>
                </mxCell>
                <mxCell id="GQ4f7FLdB0ceitJemdQN-33" value="" style="endArrow=classic;startArrow=classic;html=1;fontSize=30;entryX=0;entryY=1;entryDx=0;entryDy=0;" parent="1" source="GQ4f7FLdB0ceitJemdQN-13" target="GQ4f7FLdB0ceitJemdQN-32" edge="1">
                    <mxGeometry width="50" height="50" relative="1" as="geometry">
                        <mxPoint x="939.9918844178551" y="188.86051446698218" as="sourcePoint"/>
                        <mxPoint x="1165.8400000000001" y="185.36" as="targetPoint"/>
                    </mxGeometry>
                </mxCell>
                <mxCell id="GQ4f7FLdB0ceitJemdQN-34" value="" style="group" parent="1" vertex="1" connectable="0">
                    <mxGeometry x="995" y="110" width="90" height="80" as="geometry"/>
                </mxCell>
                <mxCell id="GQ4f7FLdB0ceitJemdQN-32" value="Broker" style="rhombus;whiteSpace=wrap;html=1;fontSize=10;" parent="GQ4f7FLdB0ceitJemdQN-34" vertex="1">
                    <mxGeometry x="5" width="80" height="80" as="geometry"/>
                </mxCell>
                <mxCell id="GQ4f7FLdB0ceitJemdQN-29" value="amqp ou mqtt" style="text;html=1;strokeColor=none;fillColor=none;align=center;verticalAlign=middle;whiteSpace=wrap;rounded=0;fontSize=10;" parent="GQ4f7FLdB0ceitJemdQN-34" vertex="1">
                    <mxGeometry y="10" width="90" height="20" as="geometry"/>
                </mxCell>
                <mxCell id="GQ4f7FLdB0ceitJemdQN-41" value="" style="endArrow=classic;startArrow=classic;html=1;fontSize=10;exitX=0.966;exitY=0.683;exitDx=0;exitDy=0;exitPerimeter=0;entryX=0;entryY=0;entryDx=0;entryDy=0;" parent="1" source="GQ4f7FLdB0ceitJemdQN-15" target="GQ4f7FLdB0ceitJemdQN-36" edge="1">
                    <mxGeometry width="50" height="50" relative="1" as="geometry">
                        <mxPoint x="950" y="930" as="sourcePoint"/>
                        <mxPoint x="1000" y="880" as="targetPoint"/>
                    </mxGeometry>
                </mxCell>
                <mxCell id="GQ4f7FLdB0ceitJemdQN-42" value="" style="endArrow=classic;startArrow=classic;html=1;fontSize=10;entryX=0;entryY=0;entryDx=0;entryDy=0;" parent="1" source="GQ4f7FLdB0ceitJemdQN-14" target="GQ4f7FLdB0ceitJemdQN-36" edge="1">
                    <mxGeometry width="50" height="50" relative="1" as="geometry">
                        <mxPoint x="934.5600000000004" y="959.2800000000002" as="sourcePoint"/>
                        <mxPoint x="1011.1439518336069" y="988.8560481663931" as="targetPoint"/>
                    </mxGeometry>
                </mxCell>
                <mxCell id="GQ4f7FLdB0ceitJemdQN-43" value="" style="group" parent="1" vertex="1" connectable="0">
                    <mxGeometry x="1000" y="940" width="89.99999999999989" height="80" as="geometry"/>
                </mxCell>
                <mxCell id="GQ4f7FLdB0ceitJemdQN-36" value="Broker" style="rhombus;whiteSpace=wrap;html=1;fontSize=10;" parent="GQ4f7FLdB0ceitJemdQN-43" vertex="1">
                    <mxGeometry x="5" width="80" height="80" as="geometry"/>
                </mxCell>
                <mxCell id="GQ4f7FLdB0ceitJemdQN-37" value="amqp ou mqtt" style="text;html=1;strokeColor=none;fillColor=none;align=center;verticalAlign=middle;whiteSpace=wrap;rounded=0;fontSize=10;" parent="GQ4f7FLdB0ceitJemdQN-43" vertex="1">
                    <mxGeometry y="50" width="90" height="20" as="geometry"/>
                </mxCell>
                <mxCell id="GQ4f7FLdB0ceitJemdQN-46" value="&lt;font style=&quot;font-size: 20px;&quot;&gt;CI/CD&lt;/font&gt;" style="ellipse;whiteSpace=wrap;html=1;aspect=fixed;fontSize=10;fillColor=#e51400;fontColor=#ffffff;strokeColor=#B20000;" parent="1" vertex="1">
                    <mxGeometry x="530" y="312.5" width="86" height="86" as="geometry"/>
                </mxCell>
                <mxCell id="GQ4f7FLdB0ceitJemdQN-47" value="&lt;font style=&quot;font-size: 20px;&quot;&gt;CI/CD&lt;/font&gt;" style="ellipse;whiteSpace=wrap;html=1;aspect=fixed;fontSize=10;fillColor=#e51400;fontColor=#ffffff;strokeColor=#B20000;" parent="1" vertex="1">
                    <mxGeometry x="967" y="675.25" width="86" height="86" as="geometry"/>
                </mxCell>
                <mxCell id="GQ4f7FLdB0ceitJemdQN-48" value="&lt;font style=&quot;font-size: 20px;&quot;&gt;CI/CD&lt;/font&gt;" style="ellipse;whiteSpace=wrap;html=1;aspect=fixed;fontSize=10;fillColor=#e51400;fontColor=#ffffff;strokeColor=#B20000;" parent="1" vertex="1">
                    <mxGeometry x="807" y="790" width="86" height="86" as="geometry"/>
                </mxCell>
                <mxCell id="GQ4f7FLdB0ceitJemdQN-49" value="&lt;font style=&quot;font-size: 20px;&quot;&gt;CI/CD&lt;/font&gt;" style="ellipse;whiteSpace=wrap;html=1;aspect=fixed;fontSize=10;fillColor=#e51400;fontColor=#ffffff;strokeColor=#B20000;" parent="1" vertex="1">
                    <mxGeometry x="1160" y="340" width="86" height="86" as="geometry"/>
                </mxCell>
                <mxCell id="GQ4f7FLdB0ceitJemdQN-50" value="CORE&lt;br&gt;microservice&lt;br&gt;dotnet" style="ellipse;whiteSpace=wrap;html=1;aspect=fixed;fontSize=15;fillColor=#e3c800;fontColor=#000000;strokeColor=#B09500;" parent="1" vertex="1">
                    <mxGeometry x="550" y="930" width="160" height="160" as="geometry"/>
                </mxCell>
                <mxCell id="GQ4f7FLdB0ceitJemdQN-52" value="&lt;font style=&quot;font-size: 20px;&quot;&gt;CI/CD&lt;/font&gt;" style="ellipse;whiteSpace=wrap;html=1;aspect=fixed;fontSize=10;fillColor=#e51400;fontColor=#ffffff;strokeColor=#B20000;" parent="1" vertex="1">
                    <mxGeometry x="500" y="930" width="86" height="86" as="geometry"/>
                </mxCell>
                <mxCell id="GQ4f7FLdB0ceitJemdQN-53" value="" style="endArrow=classic;startArrow=classic;html=1;fontSize=10;entryX=0;entryY=0;entryDx=0;entryDy=0;exitX=0.979;exitY=0.627;exitDx=0;exitDy=0;exitPerimeter=0;" parent="1" source="GQ4f7FLdB0ceitJemdQN-50" target="GQ4f7FLdB0ceitJemdQN-56" edge="1">
                    <mxGeometry width="50" height="50" relative="1" as="geometry">
                        <mxPoint x="700" y="1040" as="sourcePoint"/>
                        <mxPoint x="775.44" y="970.03" as="targetPoint"/>
                    </mxGeometry>
                </mxCell>
                <mxCell id="GQ4f7FLdB0ceitJemdQN-54" value="" style="endArrow=classic;startArrow=classic;html=1;fontSize=10;entryX=0;entryY=0;entryDx=0;entryDy=0;exitX=0.2;exitY=0.911;exitDx=0;exitDy=0;exitPerimeter=0;" parent="1" source="GQ4f7FLdB0ceitJemdQN-15" target="GQ4f7FLdB0ceitJemdQN-56" edge="1">
                    <mxGeometry width="50" height="50" relative="1" as="geometry">
                        <mxPoint x="803.1873724188922" y="979.99827912932" as="sourcePoint"/>
                        <mxPoint x="786.583951833607" y="1078.886048166393" as="targetPoint"/>
                    </mxGeometry>
                </mxCell>
                <mxCell id="GQ4f7FLdB0ceitJemdQN-55" value="" style="group" parent="1" vertex="1" connectable="0">
                    <mxGeometry x="775.44" y="1030.03" width="89.99999999999989" height="80" as="geometry"/>
                </mxCell>
                <mxCell id="GQ4f7FLdB0ceitJemdQN-56" value="Broker" style="rhombus;whiteSpace=wrap;html=1;fontSize=10;" parent="GQ4f7FLdB0ceitJemdQN-55" vertex="1">
                    <mxGeometry x="5" width="80" height="80" as="geometry"/>
                </mxCell>
                <mxCell id="GQ4f7FLdB0ceitJemdQN-57" value="amqp ou mqtt" style="text;html=1;strokeColor=none;fillColor=none;align=center;verticalAlign=middle;whiteSpace=wrap;rounded=0;fontSize=10;" parent="GQ4f7FLdB0ceitJemdQN-55" vertex="1">
                    <mxGeometry y="50" width="90" height="20" as="geometry"/>
                </mxCell>
                <mxCell id="XYAPubBJLH74dwEfytQ6-3" value="RabitMQ" style="text;html=1;strokeColor=none;fillColor=none;align=center;verticalAlign=middle;whiteSpace=wrap;rounded=0;fontSize=20;" parent="1" vertex="1">
                    <mxGeometry x="1030" y="150" width="130" height="30" as="geometry"/>
                </mxCell>
                <mxCell id="E6IXqjgTDV1YvcTS-g6Z-1" value="MENU" style="rounded=0;whiteSpace=wrap;html=1;fontSize=7;fillColor=#6a00ff;fontColor=#ffffff;strokeColor=#3700CC;" parent="1" vertex="1">
                    <mxGeometry x="450" y="1020.03" width="120" height="10" as="geometry"/>
                </mxCell>
            </root>
        </mxGraphModel>
    </diagram>
    <diagram id="1ac2LrbMH4y7qHLanP1j" name="CI/CD">
        <mxGraphModel dx="1242" dy="568" grid="1" gridSize="10" guides="1" tooltips="1" connect="1" arrows="1" fold="1" page="1" pageScale="1" pageWidth="850" pageHeight="1100" math="0" shadow="0">
            <root>
                <mxCell id="0"/>
                <mxCell id="1" parent="0"/>
                <mxCell id="Pe0uHIj4R8tmFz6QL1Fv-8" value="" style="rounded=0;whiteSpace=wrap;html=1;fontSize=20;horizontal=0;verticalAlign=middle;strokeColor=default;fillColor=none;dashed=1;" parent="1" vertex="1">
                    <mxGeometry x="30" y="80" width="460" height="490" as="geometry"/>
                </mxCell>
                <mxCell id="Pe0uHIj4R8tmFz6QL1Fv-10" style="edgeStyle=none;html=1;fontSize=20;" parent="1" source="Pe0uHIj4R8tmFz6QL1Fv-1" target="Pe0uHIj4R8tmFz6QL1Fv-5" edge="1">
                    <mxGeometry relative="1" as="geometry"/>
                </mxCell>
                <mxCell id="Pe0uHIj4R8tmFz6QL1Fv-1" value="ALAN" style="rounded=0;whiteSpace=wrap;html=1;fontSize=20;fillColor=#e3c800;fontColor=#000000;strokeColor=#B09500;" parent="1" vertex="1">
                    <mxGeometry x="150" y="180" width="120" height="60" as="geometry"/>
                </mxCell>
                <mxCell id="Pe0uHIj4R8tmFz6QL1Fv-11" style="edgeStyle=none;html=1;fontSize=20;startArrow=none;" parent="1" source="c_ZEKcSVMSrcy1-5-G5--9" target="Pe0uHIj4R8tmFz6QL1Fv-5" edge="1">
                    <mxGeometry relative="1" as="geometry"/>
                </mxCell>
                <mxCell id="Pe0uHIj4R8tmFz6QL1Fv-2" value="MAISA" style="rounded=0;whiteSpace=wrap;html=1;fontSize=20;fillColor=#e51400;fontColor=#ffffff;strokeColor=#B20000;" parent="1" vertex="1">
                    <mxGeometry x="150" y="260" width="120" height="60" as="geometry"/>
                </mxCell>
                <mxCell id="Pe0uHIj4R8tmFz6QL1Fv-12" style="edgeStyle=none;html=1;fontSize=20;" parent="1" source="Pe0uHIj4R8tmFz6QL1Fv-3" target="Pe0uHIj4R8tmFz6QL1Fv-5" edge="1">
                    <mxGeometry relative="1" as="geometry"/>
                </mxCell>
                <mxCell id="Pe0uHIj4R8tmFz6QL1Fv-3" value="MAIRA" style="rounded=0;whiteSpace=wrap;html=1;fontSize=20;fillColor=#76608a;fontColor=#ffffff;strokeColor=#432D57;" parent="1" vertex="1">
                    <mxGeometry x="150" y="340" width="120" height="60" as="geometry"/>
                </mxCell>
                <mxCell id="Pe0uHIj4R8tmFz6QL1Fv-13" style="edgeStyle=none;html=1;fontSize=20;" parent="1" source="Pe0uHIj4R8tmFz6QL1Fv-4" target="Pe0uHIj4R8tmFz6QL1Fv-5" edge="1">
                    <mxGeometry relative="1" as="geometry"/>
                </mxCell>
                <mxCell id="Pe0uHIj4R8tmFz6QL1Fv-4" value="JAMILE" style="rounded=0;whiteSpace=wrap;html=1;fontSize=20;fillColor=#6d8764;fontColor=#ffffff;strokeColor=#3A5431;" parent="1" vertex="1">
                    <mxGeometry x="150" y="420" width="120" height="60" as="geometry"/>
                </mxCell>
                <mxCell id="c_ZEKcSVMSrcy1-5-G5--2" style="edgeStyle=none;html=1;fontSize=20;exitX=1;exitY=0.5;exitDx=0;exitDy=0;" parent="1" source="c_ZEKcSVMSrcy1-5-G5--3" target="c_ZEKcSVMSrcy1-5-G5--1" edge="1">
                    <mxGeometry relative="1" as="geometry">
                        <mxPoint x="860" y="317" as="sourcePoint"/>
                    </mxGeometry>
                </mxCell>
                <mxCell id="c_ZEKcSVMSrcy1-5-G5--4" style="edgeStyle=none;html=1;fontSize=20;" parent="1" source="Pe0uHIj4R8tmFz6QL1Fv-5" target="c_ZEKcSVMSrcy1-5-G5--3" edge="1">
                    <mxGeometry relative="1" as="geometry"/>
                </mxCell>
                <mxCell id="c_ZEKcSVMSrcy1-5-G5--5" style="edgeStyle=none;html=1;entryX=0;entryY=0.25;entryDx=0;entryDy=0;fontSize=20;" parent="1" source="Pe0uHIj4R8tmFz6QL1Fv-5" target="c_ZEKcSVMSrcy1-5-G5--3" edge="1">
                    <mxGeometry relative="1" as="geometry"/>
                </mxCell>
                <mxCell id="c_ZEKcSVMSrcy1-5-G5--6" style="edgeStyle=none;html=1;entryX=0;entryY=0.75;entryDx=0;entryDy=0;fontSize=20;" parent="1" source="Pe0uHIj4R8tmFz6QL1Fv-5" target="c_ZEKcSVMSrcy1-5-G5--3" edge="1">
                    <mxGeometry relative="1" as="geometry"/>
                </mxCell>
                <mxCell id="Pe0uHIj4R8tmFz6QL1Fv-5" value="Controle de versão" style="ellipse;whiteSpace=wrap;html=1;fontSize=20;" parent="1" vertex="1">
                    <mxGeometry x="570" y="255" width="120" height="120" as="geometry"/>
                </mxCell>
                <mxCell id="Pe0uHIj4R8tmFz6QL1Fv-6" value="AMBIENTE DE PRODUÇÃO" style="rounded=0;whiteSpace=wrap;html=1;fontSize=20;horizontal=0;verticalAlign=middle;" parent="1" vertex="1">
                    <mxGeometry x="1200" y="60" width="70" height="490" as="geometry"/>
                </mxCell>
                <mxCell id="Pe0uHIj4R8tmFz6QL1Fv-7" value="FRONT END" style="rounded=0;whiteSpace=wrap;html=1;fontSize=20;horizontal=0;fillColor=#0050ef;fontColor=#ffffff;strokeColor=#001DBC;" parent="1" vertex="1">
                    <mxGeometry x="80" y="140" width="50" height="380" as="geometry"/>
                </mxCell>
                <mxCell id="Pe0uHIj4R8tmFz6QL1Fv-9" value="Ambiente desenvolvimento" style="text;html=1;strokeColor=none;fillColor=none;align=left;verticalAlign=middle;whiteSpace=wrap;rounded=0;dashed=1;fontSize=20;" parent="1" vertex="1">
                    <mxGeometry x="30" y="50" width="290" height="30" as="geometry"/>
                </mxCell>
                <mxCell id="c_ZEKcSVMSrcy1-5-G5--1" value="código main" style="rhombus;whiteSpace=wrap;html=1;dashed=1;strokeColor=default;fontSize=20;fillColor=none;" parent="1" vertex="1">
                    <mxGeometry x="1050" y="232" width="170" height="170" as="geometry"/>
                </mxCell>
                <mxCell id="c_ZEKcSVMSrcy1-5-G5--3" value="Merge" style="triangle;whiteSpace=wrap;html=1;dashed=1;strokeColor=default;fontSize=20;fillColor=none;" parent="1" vertex="1">
                    <mxGeometry x="750" y="277" width="130" height="80" as="geometry"/>
                </mxCell>
                <mxCell id="c_ZEKcSVMSrcy1-5-G5--7" value="CD" style="ellipse;whiteSpace=wrap;html=1;dashed=1;strokeColor=#3700CC;fontSize=20;fillColor=#6a00ff;fontColor=#ffffff;" parent="1" vertex="1">
                    <mxGeometry x="910" y="265" width="100" height="100" as="geometry"/>
                </mxCell>
                <mxCell id="c_ZEKcSVMSrcy1-5-G5--11" value="" style="edgeStyle=none;html=1;fontSize=20;endArrow=none;" parent="1" source="Pe0uHIj4R8tmFz6QL1Fv-2" target="c_ZEKcSVMSrcy1-5-G5--9" edge="1">
                    <mxGeometry relative="1" as="geometry">
                        <mxPoint x="270" y="293.5770860444213" as="sourcePoint"/>
                        <mxPoint x="570.1040064785955" y="311.468716935246" as="targetPoint"/>
                    </mxGeometry>
                </mxCell>
                <mxCell id="c_ZEKcSVMSrcy1-5-G5--9" value="CI" style="ellipse;whiteSpace=wrap;html=1;dashed=1;strokeColor=#3700CC;fontSize=20;fillColor=#6a00ff;fontColor=#ffffff;" parent="1" vertex="1">
                    <mxGeometry x="390" y="194" width="120" height="220" as="geometry"/>
                </mxCell>
                <mxCell id="c_ZEKcSVMSrcy1-5-G5--12" value="APROVAÇÃO" style="rounded=0;whiteSpace=wrap;html=1;fontSize=10;horizontal=0;fillColor=#d80073;fontColor=#ffffff;strokeColor=#A50040;" parent="1" vertex="1">
                    <mxGeometry x="707" y="96" width="20" height="450" as="geometry"/>
                </mxCell>
            </root>
        </mxGraphModel>
    </diagram>
    <diagram id="33uvd8QJMVt56nTlctZb" name="Scrum">
        <mxGraphModel dx="1242" dy="568" grid="1" gridSize="10" guides="1" tooltips="1" connect="1" arrows="1" fold="1" page="1" pageScale="1" pageWidth="850" pageHeight="1100" math="0" shadow="0">
            <root>
                <mxCell id="0"/>
                <mxCell id="1" parent="0"/>
                <mxCell id="9urut4Xq2O4G5vNCR91r-3" style="edgeStyle=none;html=1;fontSize=18;exitX=1;exitY=0.182;exitDx=0;exitDy=0;exitPerimeter=0;" parent="1" source="9urut4Xq2O4G5vNCR91r-15" target="9urut4Xq2O4G5vNCR91r-9" edge="1">
                    <mxGeometry relative="1" as="geometry"/>
                </mxCell>
                <mxCell id="smRlew3etXCa7ZjP2Ca1-10" style="edgeStyle=none;html=1;fontSize=10;" parent="1" source="9urut4Xq2O4G5vNCR91r-7" target="9urut4Xq2O4G5vNCR91r-13" edge="1">
                    <mxGeometry relative="1" as="geometry">
                        <Array as="points">
                            <mxPoint x="110" y="450"/>
                        </Array>
                    </mxGeometry>
                </mxCell>
                <mxCell id="9urut4Xq2O4G5vNCR91r-7" value="Product Owner&lt;br&gt;Marlon/Leo" style="rounded=0;whiteSpace=wrap;html=1;fillColor=#60a917;fontColor=#ffffff;strokeColor=#2D7600;" parent="1" vertex="1">
                    <mxGeometry x="50" y="250" width="120" height="60" as="geometry"/>
                </mxCell>
                <mxCell id="9urut4Xq2O4G5vNCR91r-8" value="JAMILE&lt;br&gt;recurso 2" style="rounded=0;whiteSpace=wrap;html=1;fillColor=#008a00;fontColor=#ffffff;strokeColor=#005700;" parent="1" vertex="1">
                    <mxGeometry x="1230" y="420" width="120" height="60" as="geometry"/>
                </mxCell>
                <mxCell id="9urut4Xq2O4G5vNCR91r-9" value="ALAN&lt;br&gt;recurso 1" style="rounded=0;whiteSpace=wrap;html=1;fillColor=#a20025;fontColor=#ffffff;strokeColor=#6F0000;" parent="1" vertex="1">
                    <mxGeometry x="1230" y="250" width="120" height="60" as="geometry"/>
                </mxCell>
                <mxCell id="9urut4Xq2O4G5vNCR91r-10" value="MAISA&lt;br&gt;recurso 3" style="rounded=0;whiteSpace=wrap;html=1;fillColor=#6a00ff;fontColor=#ffffff;strokeColor=#3700CC;" parent="1" vertex="1">
                    <mxGeometry x="1230" y="613" width="120" height="60" as="geometry"/>
                </mxCell>
                <mxCell id="9urut4Xq2O4G5vNCR91r-11" style="edgeStyle=none;html=1;fontSize=18;" parent="1" source="9urut4Xq2O4G5vNCR91r-12" target="9urut4Xq2O4G5vNCR91r-7" edge="1">
                    <mxGeometry relative="1" as="geometry"/>
                </mxCell>
                <mxCell id="9urut4Xq2O4G5vNCR91r-12" value="Cliente&lt;br&gt;Unidades prisionais (Estado)" style="rounded=0;whiteSpace=wrap;html=1;fillColor=#1ba1e2;fontColor=#ffffff;strokeColor=#006EAF;" parent="1" vertex="1">
                    <mxGeometry x="50" y="100" width="120" height="60" as="geometry"/>
                </mxCell>
                <mxCell id="smRlew3etXCa7ZjP2Ca1-9" style="edgeStyle=none;html=1;fontSize=10;" parent="1" source="9urut4Xq2O4G5vNCR91r-13" target="9urut4Xq2O4G5vNCR91r-14" edge="1">
                    <mxGeometry relative="1" as="geometry"/>
                </mxCell>
                <mxCell id="9urut4Xq2O4G5vNCR91r-13" value="Sprint Planning" style="rounded=0;whiteSpace=wrap;html=1;fillColor=#6d8764;fontColor=#ffffff;strokeColor=#3A5431;" parent="1" vertex="1">
                    <mxGeometry x="250" y="285" width="60" height="330" as="geometry"/>
                </mxCell>
                <mxCell id="smRlew3etXCa7ZjP2Ca1-4" style="edgeStyle=none;html=1;fontSize=10;" parent="1" source="9urut4Xq2O4G5vNCR91r-14" target="smRlew3etXCa7ZjP2Ca1-1" edge="1">
                    <mxGeometry relative="1" as="geometry"/>
                </mxCell>
                <mxCell id="smRlew3etXCa7ZjP2Ca1-5" style="edgeStyle=none;html=1;fontSize=10;" parent="1" source="9urut4Xq2O4G5vNCR91r-14" target="smRlew3etXCa7ZjP2Ca1-2" edge="1">
                    <mxGeometry relative="1" as="geometry"/>
                </mxCell>
                <mxCell id="smRlew3etXCa7ZjP2Ca1-6" style="edgeStyle=none;html=1;fontSize=10;" parent="1" source="9urut4Xq2O4G5vNCR91r-14" target="smRlew3etXCa7ZjP2Ca1-3" edge="1">
                    <mxGeometry relative="1" as="geometry"/>
                </mxCell>
                <mxCell id="smRlew3etXCa7ZjP2Ca1-12" style="edgeStyle=none;html=1;fontSize=10;startArrow=none;" parent="1" source="smRlew3etXCa7ZjP2Ca1-21" target="9urut4Xq2O4G5vNCR91r-8" edge="1">
                    <mxGeometry relative="1" as="geometry">
                        <mxPoint x="620" y="328.0000000000001" as="sourcePoint"/>
                    </mxGeometry>
                </mxCell>
                <mxCell id="9urut4Xq2O4G5vNCR91r-14" value="Sprint Poker" style="rounded=0;whiteSpace=wrap;html=1;fillColor=#e3c800;fontColor=#000000;strokeColor=#B09500;" parent="1" vertex="1">
                    <mxGeometry x="350" y="420" width="120" height="60" as="geometry"/>
                </mxCell>
                <mxCell id="smRlew3etXCa7ZjP2Ca1-13" style="edgeStyle=none;html=1;fontSize=10;exitX=1;exitY=0.75;exitDx=0;exitDy=0;" parent="1" source="9urut4Xq2O4G5vNCR91r-15" target="9urut4Xq2O4G5vNCR91r-10" edge="1">
                    <mxGeometry relative="1" as="geometry"/>
                </mxCell>
                <mxCell id="9urut4Xq2O4G5vNCR91r-15" value="Sprint 1&lt;br&gt;15 dias" style="rounded=0;whiteSpace=wrap;html=1;fillColor=#fa6800;fontColor=#000000;strokeColor=#C73500;" parent="1" vertex="1">
                    <mxGeometry x="638" y="285" width="120" height="330" as="geometry"/>
                </mxCell>
                <mxCell id="9urut4Xq2O4G5vNCR91r-16" value="Scrum - Metodologia Ágil" style="text;html=1;strokeColor=none;fillColor=none;align=left;verticalAlign=middle;whiteSpace=wrap;rounded=0;fontSize=18;" parent="1" vertex="1">
                    <mxGeometry x="10" y="10" width="290" height="30" as="geometry"/>
                </mxCell>
                <mxCell id="9urut4Xq2O4G5vNCR91r-17" value="Analista de negócios" style="text;html=1;strokeColor=none;fillColor=none;align=center;verticalAlign=middle;whiteSpace=wrap;rounded=0;fontSize=18;" parent="1" vertex="1">
                    <mxGeometry x="120" y="220" width="180" height="30" as="geometry"/>
                </mxCell>
                <mxCell id="smRlew3etXCa7ZjP2Ca1-1" value="TICKET 1" style="rounded=0;whiteSpace=wrap;html=1;fillColor=#f0a30a;fontColor=#000000;strokeColor=#BD7000;" parent="1" vertex="1">
                    <mxGeometry x="540" y="310" width="120" height="60" as="geometry"/>
                </mxCell>
                <mxCell id="smRlew3etXCa7ZjP2Ca1-2" value="TICKET 2" style="rounded=0;whiteSpace=wrap;html=1;fillColor=#f0a30a;fontColor=#000000;strokeColor=#BD7000;" parent="1" vertex="1">
                    <mxGeometry x="540" y="420" width="120" height="60" as="geometry"/>
                </mxCell>
                <mxCell id="smRlew3etXCa7ZjP2Ca1-3" value="TICKET 3" style="rounded=0;whiteSpace=wrap;html=1;fillColor=#f0a30a;fontColor=#000000;strokeColor=#BD7000;" parent="1" vertex="1">
                    <mxGeometry x="540" y="540" width="120" height="60" as="geometry"/>
                </mxCell>
                <mxCell id="smRlew3etXCa7ZjP2Ca1-7" value="Definição de tempo para desenvolvimento da atividade prevista no ticket" style="text;html=1;strokeColor=none;fillColor=none;align=center;verticalAlign=middle;whiteSpace=wrap;rounded=0;fontSize=10;" parent="1" vertex="1">
                    <mxGeometry x="330" y="490" width="160" height="40" as="geometry"/>
                </mxCell>
                <mxCell id="9urut4Xq2O4G5vNCR91r-5" value="Scrum Master&lt;br&gt;Maira" style="rounded=0;whiteSpace=wrap;html=1;fillColor=#0050ef;fontColor=#ffffff;strokeColor=#001DBC;" parent="1" vertex="1">
                    <mxGeometry x="1070" y="245" width="120" height="430" as="geometry"/>
                </mxCell>
                <mxCell id="smRlew3etXCa7ZjP2Ca1-16" value="DASHBOARD NOVA COM INDICADORES DO SETOR DE EDUCAÇÃO" style="rounded=0;whiteSpace=wrap;html=1;strokeColor=default;fontSize=10;fillColor=none;" parent="1" vertex="1">
                    <mxGeometry x="20" y="675" width="350" height="20" as="geometry"/>
                </mxCell>
                <mxCell id="smRlew3etXCa7ZjP2Ca1-17" value="1. Levantamento de requisito não técnico (Entender a necessidade de negócio)&lt;br&gt;2. Prazo de entrega&lt;br&gt;3. Valores" style="text;html=1;strokeColor=none;fillColor=none;align=left;verticalAlign=middle;whiteSpace=wrap;rounded=0;fontSize=10;" parent="1" vertex="1">
                    <mxGeometry x="20" y="625" width="380" height="50" as="geometry"/>
                </mxCell>
                <mxCell id="smRlew3etXCa7ZjP2Ca1-18" value="1. Converte a necessidade de negócio em requisito de sistema;&lt;br&gt;2. Especifica os requisitos de sistemas: Detalha nome de tabela, tipo de campo, infraestrutura de back end necessária...&lt;br&gt;3. Criação e organização dos tickets no gestor de projetos;&lt;br&gt;4. Dinâmica para definição de tempo para realização da atividade de desenvolvimento do ticket.&lt;br&gt;5.&amp;nbsp;" style="rounded=0;whiteSpace=wrap;html=1;strokeColor=default;fontSize=10;fillColor=none;align=left;" parent="1" vertex="1">
                    <mxGeometry x="180" y="720" width="350" height="170" as="geometry"/>
                </mxCell>
                <mxCell id="smRlew3etXCa7ZjP2Ca1-22" value="" style="edgeStyle=none;html=1;fontSize=10;startArrow=none;endArrow=none;" parent="1" source="9urut4Xq2O4G5vNCR91r-15" target="smRlew3etXCa7ZjP2Ca1-21" edge="1">
                    <mxGeometry relative="1" as="geometry">
                        <mxPoint x="758" y="455.41237113402053" as="sourcePoint"/>
                        <mxPoint x="1220" y="458.58762886597947" as="targetPoint"/>
                    </mxGeometry>
                </mxCell>
                <mxCell id="smRlew3etXCa7ZjP2Ca1-21" value="Sprint 2&lt;br&gt;15 dias" style="rounded=0;whiteSpace=wrap;html=1;fillColor=#fa6800;fontColor=#000000;strokeColor=#C73500;" parent="1" vertex="1">
                    <mxGeometry x="780" y="285" width="120" height="330" as="geometry"/>
                </mxCell>
                <mxCell id="smRlew3etXCa7ZjP2Ca1-23" value="Sprint 3&lt;br&gt;15 dias" style="rounded=0;whiteSpace=wrap;html=1;fillColor=#fa6800;fontColor=#000000;strokeColor=#C73500;" parent="1" vertex="1">
                    <mxGeometry x="920" y="285" width="120" height="330" as="geometry"/>
                </mxCell>
                <mxCell id="smRlew3etXCa7ZjP2Ca1-24" value="TICKET 4" style="rounded=0;whiteSpace=wrap;html=1;fillColor=#f0a30a;fontColor=#000000;strokeColor=#BD7000;" parent="1" vertex="1">
                    <mxGeometry x="770" y="310" width="120" height="60" as="geometry"/>
                </mxCell>
                <mxCell id="smRlew3etXCa7ZjP2Ca1-25" value="TICKET 5" style="rounded=0;whiteSpace=wrap;html=1;fillColor=#f0a30a;fontColor=#000000;strokeColor=#BD7000;" parent="1" vertex="1">
                    <mxGeometry x="770" y="540" width="120" height="60" as="geometry"/>
                </mxCell>
                <mxCell id="smRlew3etXCa7ZjP2Ca1-26" value="TICKET 6" style="rounded=0;whiteSpace=wrap;html=1;fillColor=#f0a30a;fontColor=#000000;strokeColor=#BD7000;" parent="1" vertex="1">
                    <mxGeometry x="910" y="310" width="120" height="60" as="geometry"/>
                </mxCell>
                <mxCell id="smRlew3etXCa7ZjP2Ca1-27" value="TICKET 7" style="rounded=0;whiteSpace=wrap;html=1;fillColor=#f0a30a;fontColor=#000000;strokeColor=#BD7000;" parent="1" vertex="1">
                    <mxGeometry x="910" y="540" width="120" height="60" as="geometry"/>
                </mxCell>
                <mxCell id="DKguxYVWpjyQUszFurDV-1" value="BurnDown&lt;br&gt;Indicador de evolução da sprint" style="rounded=0;whiteSpace=wrap;html=1;fillColor=#76608a;fontColor=#ffffff;strokeColor=#432D57;" parent="1" vertex="1">
                    <mxGeometry x="370" y="120" width="920" height="100" as="geometry"/>
                </mxCell>
                <mxCell id="DKguxYVWpjyQUszFurDV-2" value="Reunião entrega&lt;br&gt;Cliente já está acessando as novas funcionalidades" style="rounded=0;whiteSpace=wrap;html=1;fillColor=#60a917;fontColor=#ffffff;strokeColor=#2D7600;" parent="1" vertex="1">
                    <mxGeometry x="1400" y="250" width="120" height="430" as="geometry"/>
                </mxCell>
            </root>
        </mxGraphModel>
    </diagram>
</mxfile>